<svg width="155" height="155" viewBox="0 0 155 155" fill="none" xmlns="http://www.w3.org/2000/svg">
<path d="M77.5 9.6875C40.0518 9.6875 9.6875 40.0518 9.6875 77.5C9.6875 114.948 40.0518 145.312 77.5 145.312C114.948 145.312 145.312 114.948 145.312 77.5C145.312 40.0518 114.948 9.6875 77.5 9.6875ZM99.312 78.5444L66.2534 102.597C66.0722 102.727 65.8586 102.805 65.636 102.821C65.4135 102.838 65.1906 102.793 64.9919 102.691C64.7933 102.59 64.6265 102.435 64.5099 102.245C64.3933 102.055 64.3314 101.836 64.3311 101.613V53.5386C64.3303 53.315 64.3915 53.0955 64.5079 52.9045C64.6242 52.7136 64.7912 52.5585 64.9903 52.4566C65.1893 52.3548 65.4127 52.31 65.6357 52.3273C65.8586 52.3446 66.0725 52.4233 66.2534 52.5547L99.312 76.5918C99.4682 76.7022 99.5956 76.8486 99.6835 77.0184C99.7715 77.1883 99.8173 77.3768 99.8173 77.5681C99.8173 77.7594 99.7715 77.9479 99.6835 78.1178C99.5956 78.2877 99.4682 78.434 99.312 78.5444Z" fill="black" fill-opacity="0.69"/>
</svg>
